<svg xmlns="http://www.w3.org/2000/svg" width="18" height="16" viewBox="0 0 18 16">
    <g fill="#444" fill-rule="nonzero" opacity=".5">
        <path d="M9 11.523A3.527 3.527 0 0 1 5.477 8 3.527 3.527 0 0 1 9 4.476 3.527 3.527 0 0 1 12.523 8 3.527 3.527 0 0 1 9 11.523zm0-5.369A1.848 1.848 0 0 0 7.154 8c0 1.018.828 1.846 1.846 1.846A1.848 1.848 0 0 0 10.846 8 1.848 1.848 0 0 0 9 6.154z"/>
        <path d="M9 15.047c-5.248 0-8.725-4.919-8.725-6.913v-.268C.275 5.872 3.752.953 9 .953c5.304 0 8.708 4.857 8.725 6.907v.274c-.017 2.056-3.421 6.913-8.725 6.913zM9 2.295c-4.61 0-7.383 4.418-7.383 5.57v.27c0 1.152 2.774 5.57 7.383 5.57 4.666 0 7.373-4.382 7.383-5.576v-.26C16.369 6.672 13.663 2.295 9 2.295z"/>
    </g>
</svg>
