<svg width="19" height="19" viewBox="0 0 19 19" fill="none" xmlns="http://www.w3.org/2000/svg">
<circle cx="9.5" cy="9.5" r="9" stroke="#C0CEDF"/>
<path d="M9.50401 13.8381C8.95201 13.8381 8.46401 13.7621 8.04001 13.6101C7.61601 13.4581 7.25201 13.2541 6.94801 12.9981C6.64401 12.7421 6.39601 12.4541 6.20401 12.1341L7.02001 11.4741C7.17201 11.7621 7.36401 12.0181 7.59601 12.2421C7.82801 12.4661 8.10801 12.6421 8.43601 12.7701C8.76401 12.8981 9.14001 12.9621 9.56401 12.9621C10.156 12.9621 10.624 12.8541 10.968 12.6381C11.32 12.4221 11.496 12.1061 11.496 11.6901C11.496 11.4421 11.412 11.2221 11.244 11.0301C11.084 10.8301 10.78 10.6781 10.332 10.5741L8.53201 10.1661C8.05201 10.0541 7.66801 9.9061 7.38001 9.7221C7.09201 9.5301 6.88401 9.3061 6.75601 9.0501C6.62801 8.7861 6.56401 8.5021 6.56401 8.1981C6.56401 7.7821 6.67601 7.4021 6.90001 7.0581C7.13201 6.7141 7.46001 6.4381 7.88401 6.2301C8.31601 6.0221 8.83201 5.9181 9.43201 5.9181C10.104 5.9181 10.684 6.0541 11.172 6.3261C11.668 6.5981 12.076 7.0061 12.396 7.5501L11.616 8.1501C11.336 7.6541 11.012 7.3021 10.644 7.0941C10.284 6.8861 9.84801 6.7821 9.33601 6.7821C8.92001 6.7821 8.58001 6.8421 8.31601 6.9621C8.05201 7.0741 7.85601 7.2261 7.72801 7.4181C7.60001 7.6101 7.53601 7.8261 7.53601 8.0661C7.53601 8.2501 7.57201 8.4181 7.64401 8.5701C7.71601 8.7221 7.84401 8.8581 8.02801 8.9781C8.22001 9.0901 8.48401 9.1861 8.82001 9.2661L10.488 9.6381C11.224 9.7981 11.736 10.0461 12.024 10.3821C12.32 10.7101 12.468 11.1181 12.468 11.6061C12.468 12.0461 12.344 12.4341 12.096 12.7701C11.856 13.1061 11.512 13.3701 11.064 13.5621C10.624 13.7461 10.104 13.8381 9.50401 13.8381ZM9.04801 15.0501V4.7301H9.87601V15.0501H9.04801Z" fill="#C0CEDF"/>
</svg>
